# xmcd
#
# Track frame offsets:
# 150
# 21685
# 39719
# 80254
# 110051
# 136388
# 161212
# 168525
#
# Disc length: 2641 seconds
#
# Revision: 0
# Processed by: cddbd v1.4PL0 Copyright (c) Steve Scherf et al.
# Submitted via: Audion 3.0.2 (http://www.panic.com/audion/)
#
DISCID=700a4f08
DTITLE=carbon based lifeforms/banco de gaia - carbon based lifeforms/banco de gaia
DYEAR=1900
DGENRE=
TTITLE0=CBL/banco de gaia 01
TTITLE1=CBL/banco de gaia 02
TTITLE2=CBL/banco de gaia 03
TTITLE3=CBL/banco de gaia 04
TTITLE4=CBL/banco de gaia 05
TTITLE5=CBL/banco de gaia 06
TTITLE6=CBL/banco de gaia 07
TTITLE7=CBL/banco de gaia 08
EXTD=
EXTT0=
EXTT1=
EXTT2=
EXTT3=
EXTT4=
EXTT5=
EXTT6=
EXTT7=
PLAYORDER=
